PathFileType	4	(X/Y/Z)	C:/Users/opensim2020/Desktop/walking_exp_matlab/subject03_walking06_straight_03.trc	
DataRate	CameraRate	NumFrames	NumMarkers	Units	OrigDataRate	OrigDataStartFrame	OrigNumFrames	
100.00	100.00	5	44	mm	100.00	2240	280	
Frame#	Time	LFHD			RFHD			LBHD			RBHD			C7			T10			CLAV			STRN			RBAK			LSHO			LUPA			LELB			LFRM			LWRA			LWRB			LFIN			RSHO			RUPA			RELB			RFRM			RWRA			RWRB			RFIN			LASI			RASI			LPSI			RPSI			LTHI			LKNE			LTIB			LANK			LHEE			LTOE			RTHI			RKNE			RTIB			RANK			RHEE			RTOE			*39			*40			*41			*42			*43			
		X1	Y1	Z1	X2	Y2	Z2	X3	Y3	Z3	X4	Y4	Z4	X5	Y5	Z5	X6	Y6	Z6	X7	Y7	Z7	X8	Y8	Z8	X9	Y9	Z9	X10	Y10	Z10	X11	Y11	Z11	X12	Y12	Z12	X13	Y13	Z13	X14	Y14	Z14	X15	Y15	Z15	X16	Y16	Z16	X17	Y17	Z17	X18	Y18	Z18	X19	Y19	Z19	X20	Y20	Z20	X21	Y21	Z21	X22	Y22	Z22	X23	Y23	Z23	X24	Y24	Z24	X25	Y25	Z25	X26	Y26	Z26	X27	Y27	Z27	X28	Y28	Z28	X29	Y29	Z29	X30	Y30	Z30	X31	Y31	Z31	X32	Y32	Z32	X33	Y33	Z33	X34	Y34	Z34	X35	Y35	Z35	X36	Y36	Z36	X37	Y37	Z37	X38	Y38	Z38	X39	Y39	Z39	X40	Y40	Z40	X41	Y41	Z41	X42	Y42	Z42	X43	Y43	Z43	X44	Y44	Z44	

246	2.450	1352.99390	1169.72070	1623.58899	1486.46484	1180.17908	1636.36377	1371.23718	1045.93896	1570.77258	1500.77246	1060.81018	1583.37097	1431.80310	1030.69556	1419.52783	1433.41858	1002.23590	1105.57190	1431.36938	1153.75195	1345.15796	1430.55127	1202.11475	1182.23022	1533.49048	984.26965	1245.42358	1275.91931	1109.48291	1378.41956	1211.01855	1092.63123	1177.68384	1205.94531	1089.18213	1053.33948	1212.92908	1102.73572	923.71588	1247.89307	1104.27454	805.05371	1192.82104	1089.71411	811.48523	1210.79675	1080.31458	724.79352	1590.89209	1113.15698	1372.13245	1665.14685	1133.94080	1151.29529	1678.23352	1161.94275	1042.57922	1676.58081	1206.42346	913.18164	1636.76477	1256.42334	828.65765	1679.92676	1226.63904	814.47668	1666.37524	1264.49280	750.83319	1322.60779	1176.02539	946.17786	1560.20837	1164.89746	939.66724	1364.28027	1012.95026	969.99390	1513.42761	1006.50098	970.60437	1281.59436	1138.39148	644.89661	1327.24695	1170.98730	470.41293	1331.12195	1141.81665	277.87283	1377.56238	1146.30981	70.11620	1416.27002	1109.01001	36.13982	1389.15723	1300.50671	36.00877	1610.22583	1111.16394	640.26849	1594.95679	1136.70593	460.85706	1599.29004	986.92389	341.84372	1558.79065	816.16376	210.82961	1502.97229	770.74084	227.47223	1543.66125	853.06250	70.54053	1408.66382	1087.45020	1681.05469												 
247	2.460	1351.72107	1179.21997	1624.08435	1484.70447	1189.36511	1636.91187	1370.04089	1055.51257	1570.98999	1499.55591	1070.37842	1583.86157	1430.77625	1040.45874	1420.06128	1432.36755	1012.06848	1105.87952	1430.75867	1163.36816	1345.72375	1429.75134	1211.61487	1182.57776	1531.63232	993.17511	1245.48767	1275.10303	1119.50964	1378.39758	1209.58899	1105.29272	1177.60278	1203.90234	1103.13867	1053.14038	1211.00427	1118.98755	923.79663	1246.67188	1122.03784	805.09894	1191.21899	1107.87891	811.14954	1208.78931	1100.94800	724.62140	1590.29065	1122.29016	1372.03979	1664.09717	1142.29102	1150.84619	1677.18933	1169.49609	1041.72449	1675.87341	1212.00781	911.66345	1636.30383	1260.77832	826.35132	1679.44177	1230.70642	812.68573	1665.65771	1267.55591	748.48083	1321.45105	1185.65686	946.75903	1559.49133	1174.76453	940.22070	1363.49182	1022.35950	970.31116	1512.51099	1016.38654	970.40485	1280.81555	1146.25891	645.47723	1326.15491	1175.86902	470.40778	1330.66357	1144.49561	278.02414	1377.55811	1146.37390	70.25965	1416.31177	1108.98962	36.30064	1389.10889	1300.55200	35.91830	1608.79907	1127.01245	641.13000	1594.02856	1157.07324	462.70752	1598.33179	1007.45795	344.47366	1558.27307	836.61877	213.31088	1502.19446	790.51367	228.54817	1545.80225	875.77490	73.73710	1406.70166	1096.69690	1680.95117												 
248	2.470	1350.45447	1188.66223	1624.51953	1483.58447	1198.89111	1637.65833	1368.94995	1065.10205	1571.18372	1498.37756	1079.90698	1584.31824	1429.75867	1050.19739	1420.71143	1431.18408	1021.14093	1105.96326	1429.89893	1172.62439	1345.98206	1428.88904	1221.03772	1182.95898	1529.70544	1002.14197	1245.55798	1274.17456	1129.09314	1378.14453	1208.23584	1117.57251	1177.48279	1201.98669	1117.54456	1053.17139	1208.98999	1135.36743	923.91034	1244.85413	1140.24072	805.50427	1189.65088	1126.20605	810.94635	1206.69263	1122.27393	724.72302	1589.67407	1131.25293	1371.87781	1663.01758	1150.61658	1150.42639	1676.04834	1177.11743	1040.92834	1675.09985	1217.58862	910.18823	1635.80359	1264.98340	824.06958	1679.08154	1234.65454	810.97131	1665.38403	1270.71045	746.41376	1320.08044	1194.79651	947.41302	1558.43054	1184.77686	940.90790	1362.97437	1031.56763	970.81580	1511.82178	1026.34851	970.45996	1280.66199	1154.32251	645.89288	1325.56091	1180.83179	470.51538	1330.35498	1147.30798	278.16898	1377.64417	1146.51648	70.46791	1416.36682	1108.97607	36.47789	1389.15417	1300.64978	35.83721	1607.39905	1143.05554	642.12866	1592.83557	1177.23633	464.68427	1597.18896	1028.15674	346.61520	1557.81799	857.77142	214.60417	1501.64844	810.83496	228.42955	1547.24976	899.70624	76.00530	1406.72925	1105.84387	1681.59778												 
249	2.480	1349.24048	1198.11462	1624.79407	1482.46716	1208.37695	1638.22314	1367.84045	1074.51233	1571.28662	1497.28357	1089.41492	1584.70789	1428.90295	1059.61755	1421.03662	1430.73303	1030.71216	1106.81604	1429.19592	1181.96948	1346.29431	1427.96521	1230.40454	1183.25183	1527.88745	1010.94348	1245.58276	1273.41968	1138.59924	1378.10132	1207.04065	1129.94910	1177.58826	1200.27588	1131.94092	1053.34595	1207.28943	1151.83093	924.32849	1243.00415	1158.53784	806.17126	1188.06226	1144.89514	811.07990	1204.47485	1144.11279	725.28192	1589.13123	1140.12427	1371.82483	1661.85608	1158.75854	1150.04395	1674.88342	1184.62073	1040.32263	1674.30396	1223.06689	908.94073	1635.30688	1269.05920	821.96667	1678.57678	1238.68738	809.45410	1665.45935	1273.93457	744.72565	1318.48145	1203.74866	948.14612	1557.08655	1195.05774	941.77502	1362.82654	1040.80664	971.11877	1511.30054	1036.31458	970.81348	1280.76501	1162.62585	646.17224	1325.34790	1186.64172	470.63712	1330.13391	1150.15735	278.35007	1377.76038	1146.78027	70.72284	1416.50574	1109.03540	36.69640	1389.27063	1300.81299	35.74268	1605.98511	1159.15198	643.15686	1591.55676	1196.99866	466.70984	1596.03918	1048.85535	348.27203	1557.56482	879.77222	214.68460	1501.39587	831.69324	227.06113	1548.14612	924.84662	77.40211	1405.37524	1115.13159	1681.89014												 
250	2.490	1348.06067	1207.47742	1624.94751	1481.42908	1217.81348	1638.69958	1366.76477	1083.82068	1571.37976	1496.20459	1098.82727	1585.01587	1428.09412	1068.97327	1421.40430	1430.14197	1039.97388	1107.20166	1428.48303	1191.35828	1346.52075	1427.01196	1239.66040	1183.50891	1526.22461	1019.84222	1245.65771	1272.66785	1147.92188	1378.12646	1206.20984	1142.11731	1177.77478	1198.70703	1146.39514	1053.80469	1205.83496	1168.41016	925.14526	1241.24829	1176.89233	807.17389	1186.21497	1163.85803	811.79785	1202.19788	1166.43298	726.41217	1588.55945	1148.95508	1371.82349	1660.76440	1166.71533	1149.76709	1673.57288	1191.93945	1039.80176	1673.46191	1228.52844	907.87109	1634.73596	1272.97888	820.08722	1678.28418	1242.55591	808.20966	1665.43665	1277.20459	743.22406	1316.76538	1212.44751	948.70691	1555.41541	1205.40015	942.76031	1362.31653	1049.89709	971.69855	1510.91028	1046.31006	971.22522	1280.81714	1171.16321	646.24927	1325.34119	1192.42493	470.47540	1329.89856	1153.00610	278.49744	1377.97546	1146.96655	70.92767	1416.65698	1109.10583	36.98523	1389.39185	1300.93896	35.65751	1604.80652	1175.05688	644.17072	1590.08093	1216.42578	468.73016	1594.75562	1069.77722	349.22403	1556.94141	902.01532	213.54437	1501.35730	853.09290	224.46887	1548.36426	951.07849	77.89028	1403.15955	1124.67480	1682.08228												 
